<svg id="visual" viewBox="0 0 900 600" width="900" height="600" xmlns="http://www.w3.org/2000/svg" xmlns:xlink="http://www.w3.org/1999/xlink" version="1.1"><path d="M0 133L21.5 154C43 175 86 217 128.8 237C171.7 257 214.3 255 257.2 242C300 229 343 205 385.8 187C428.7 169 471.3 157 514.2 157C557 157 600 169 642.8 182C685.7 195 728.3 209 771.2 196C814 183 857 143 878.5 123L900 103L900 0L878.5 0C857 0 814 0 771.2 0C728.3 0 685.7 0 642.8 0C600 0 557 0 514.2 0C471.3 0 428.7 0 385.8 0C343 0 300 0 257.2 0C214.3 0 171.7 0 128.8 0C86 0 43 0 21.5 0L0 0Z" fill="#6198ff"></path><path d="M0 403L21.5 407C43 411 86 419 128.8 411C171.7 403 214.3 379 257.2 360C300 341 343 327 385.8 334C428.7 341 471.3 369 514.2 389C557 409 600 421 642.8 424C685.7 427 728.3 421 771.2 403C814 385 857 355 878.5 340L900 325L900 101L878.5 121C857 141 814 181 771.2 194C728.3 207 685.7 193 642.8 180C600 167 557 155 514.2 155C471.3 155 428.7 167 385.8 185C343 203 300 227 257.2 240C214.3 253 171.7 255 128.8 235C86 215 43 173 21.5 152L0 131Z" fill="#2d77ff"></path><path d="M0 547L21.5 536C43 525 86 503 128.8 487C171.7 471 214.3 461 257.2 455C300 449 343 447 385.8 456C428.7 465 471.3 485 514.2 493C557 501 600 497 642.8 496C685.7 495 728.3 497 771.2 492C814 487 857 475 878.5 469L900 463L900 323L878.5 338C857 353 814 383 771.2 401C728.3 419 685.7 425 642.8 422C600 419 557 407 514.2 387C471.3 367 428.7 339 385.8 332C343 325 300 339 257.2 358C214.3 377 171.7 401 128.8 409C86 417 43 409 21.5 405L0 401Z" fill="#005de8"></path><path d="M0 601L21.5 601C43 601 86 601 128.8 601C171.7 601 214.3 601 257.2 601C300 601 343 601 385.8 601C428.7 601 471.3 601 514.2 601C557 601 600 601 642.8 601C685.7 601 728.3 601 771.2 601C814 601 857 601 878.5 601L900 601L900 461L878.5 467C857 473 814 485 771.2 490C728.3 495 685.7 493 642.8 494C600 495 557 499 514.2 491C471.3 483 428.7 463 385.8 454C343 445 300 447 257.2 453C214.3 459 171.7 469 128.8 485C86 501 43 523 21.5 534L0 545Z" fill="#004cbb"></path></svg>