<svg id="visual" viewBox="0 0 900 600" width="900" height="600" xmlns="http://www.w3.org/2000/svg" xmlns:xlink="http://www.w3.org/1999/xlink" version="1.1"><path d="M0 229L30 219C60 209 120 189 180 170C240 151 300 133 360 139C420 145 480 175 540 190C600 205 660 205 720 195C780 185 840 165 870 155L900 145L900 0L870 0C840 0 780 0 720 0C660 0 600 0 540 0C480 0 420 0 360 0C300 0 240 0 180 0C120 0 60 0 30 0L0 0Z" fill="#0066ff"></path><path d="M0 307L30 296C60 285 120 263 180 253C240 243 300 245 360 263C420 281 480 315 540 323C600 331 660 313 720 292C780 271 840 247 870 235L900 223L900 143L870 153C840 163 780 183 720 193C660 203 600 203 540 188C480 173 420 143 360 137C300 131 240 149 180 168C120 187 60 207 30 217L0 227Z" fill="#7789ff"></path><path d="M0 391L30 375C60 359 120 327 180 317C240 307 300 319 360 336C420 353 480 375 540 385C600 395 660 393 720 380C780 367 840 343 870 331L900 319L900 221L870 233C840 245 780 269 720 290C660 311 600 329 540 321C480 313 420 279 360 261C300 243 240 241 180 251C120 261 60 283 30 294L0 305Z" fill="#acafff"></path><path d="M0 499L30 497C60 495 120 491 180 498C240 505 300 523 360 524C420 525 480 509 540 503C600 497 660 501 720 506C780 511 840 517 870 520L900 523L900 317L870 329C840 341 780 365 720 378C660 391 600 393 540 383C480 373 420 351 360 334C300 317 240 305 180 315C120 325 60 357 30 373L0 389Z" fill="#d7d6ff"></path><path d="M0 601L30 601C60 601 120 601 180 601C240 601 300 601 360 601C420 601 480 601 540 601C600 601 660 601 720 601C780 601 840 601 870 601L900 601L900 521L870 518C840 515 780 509 720 504C660 499 600 495 540 501C480 507 420 523 360 522C300 521 240 503 180 496C120 489 60 493 30 495L0 497Z" fill="#ffffff"></path></svg>